<?xml version="1.0" encoding="UTF-8" standalone="no"?>
<svg
   xmlns:dc="http://purl.org/dc/elements/1.1/"
   xmlns:cc="http://creativecommons.org/ns#"
   xmlns:rdf="http://www.w3.org/1999/02/22-rdf-syntax-ns#"
   xmlns:svg="http://www.w3.org/2000/svg"
   xmlns="http://www.w3.org/2000/svg"
   xmlns:sodipodi="http://sodipodi.sourceforge.net/DTD/sodipodi-0.dtd"
   xmlns:inkscape="http://www.inkscape.org/namespaces/inkscape"
   version="1.1"
   id="svg1240"
   xml:space="preserve"
   width="283.73334"
   height="107.73334"
   viewBox="0 0 283.73334 107.73334"
   sodipodi:docname="plane_10x10.pdf"
   inkscape:version="1.0.2 (e86c8708, 2021-01-15)"><metadata
     id="metadata1246"><rdf:RDF><cc:Work
         rdf:about=""><dc:format>image/svg+xml</dc:format><dc:type
           rdf:resource="http://purl.org/dc/dcmitype/StillImage" /><dc:title></dc:title></cc:Work></rdf:RDF></metadata><defs
     id="defs1244" /><sodipodi:namedview
     pagecolor="#ffffff"
     bordercolor="#666666"
     borderopacity="1"
     objecttolerance="10"
     gridtolerance="10"
     guidetolerance="10"
     inkscape:pageopacity="0"
     inkscape:pageshadow="2"
     inkscape:window-width="729"
     inkscape:window-height="480"
     id="namedview1242"
     showgrid="false"
     inkscape:zoom="3.9508928"
     inkscape:cx="141.86667"
     inkscape:cy="53.866669"
     inkscape:window-x="0"
     inkscape:window-y="25"
     inkscape:window-maximized="0"
     inkscape:current-layer="g1248" /><g
     id="g1248"
     inkscape:groupmode="layer"
     inkscape:label="plane_10x10"
     transform="matrix(1.3333333,0,0,-1.3333333,0,107.73334)"><g
       id="g1250"><g
         id="g1252"
         transform="matrix(1,-0.122784,-0.499772,-0.45,0,80.800003)"><path
           d="m 132.86,81.561 h 13.808 c 0.01,-0.003 0.022,0.011 0.018,0.021 v 13.802 c 0.004,0.016 -0.006,0.028 -0.02,0.023 l -13.805,-10e-4 c -0.01,0.003 -0.021,-0.003 -0.022,-0.02 l 0.001,-13.802 c -0.001,-0.017 0.009,-0.02 0.02,-0.023 z"
           style="fill:none;stroke:#000000;stroke-width:0.324878;stroke-linecap:butt;stroke-linejoin:miter;stroke-miterlimit:4;stroke-dasharray:none;stroke-opacity:1"
           id="path1254" /></g><g
         id="g1256"
         transform="matrix(1,-0.122784,-0.499772,-0.45,0,80.800003)"><path
           d="m 132.864,109.911 13.801,-0.007 c 0.014,0.005 0.022,0.011 0.026,0.028 l -0.004,13.803 c 0,0.008 -0.01,0.02 -0.02,0.022 h -13.805 c -0.01,0.003 -0.021,-0.012 -0.022,-0.02 l -0.003,-13.81 c 0.003,-0.01 0.013,-0.021 0.027,-0.016 z"
           style="fill:none;stroke:#000000;stroke-width:0.324878;stroke-linecap:butt;stroke-linejoin:miter;stroke-miterlimit:4;stroke-dasharray:none;stroke-opacity:1"
           id="path1258" /></g><g
         id="g1260"
         transform="matrix(1,-0.122784,-0.499772,-0.45,0,80.800003)"><path
           d="m 132.862,95.736 13.805,10e-4 c 0.01,-0.003 0.025,0.01 0.022,0.02 l -0.001,13.802 c 0.001,0.017 -0.009,0.02 -0.023,0.024 l -13.805,-0.001 c -0.01,0.003 -0.022,-0.011 -0.018,-0.021 V 95.759 c -0.004,-0.016 0.006,-0.028 0.02,-0.023 z"
           style="fill:none;stroke:#000000;stroke-width:0.324878;stroke-linecap:butt;stroke-linejoin:miter;stroke-miterlimit:4;stroke-dasharray:none;stroke-opacity:1"
           id="path1262" /></g><g
         id="g1264"
         transform="matrix(1,-0.122784,-0.499772,-0.45,0,80.800003)"><path
           d="m 132.861,67.386 h 13.805 c 0.014,0.005 0.021,0.012 0.022,0.02 v 13.811 c 0,0.009 -0.01,0.02 -0.02,0.023 l -13.805,-10e-4 c -0.014,-0.005 -0.022,-0.011 -0.026,-0.028 l 0.004,-13.803 c 0,-0.008 0.01,-0.02 0.02,-0.022 z"
           style="fill:none;stroke:#000000;stroke-width:0.324878;stroke-linecap:butt;stroke-linejoin:miter;stroke-miterlimit:4;stroke-dasharray:none;stroke-opacity:1"
           id="path1266" /></g><g
         id="g1268"
         transform="matrix(1,-0.122784,-0.499772,-0.45,0,80.800003)"><path
           d="m 132.859,53.211 h 13.805 c 0.014,0.005 0.025,0.011 0.025,0.028 v 13.802 c -0.003,0.01 -0.01,0.02 -0.02,0.023 h -13.808 c -0.014,-0.004 -0.022,-0.011 -0.019,-0.021 l -0.003,-13.809 c 0,-0.009 0.01,-0.02 0.02,-0.023 z"
           style="fill:none;stroke:#000000;stroke-width:0.324878;stroke-linecap:butt;stroke-linejoin:miter;stroke-miterlimit:4;stroke-dasharray:none;stroke-opacity:1"
           id="path1270" /></g><g
         id="g1272"
         transform="matrix(1,-0.122784,-0.499772,-0.45,0,80.800003)"><path
           d="m 189.555,81.561 h 13.805 c 0.01,-0.003 0.021,0.012 0.021,0.02 l -0.003,13.803 c 0.004,0.017 -0.006,0.028 -0.02,0.023 h -13.805 c -0.011,0.002 -0.018,-0.004 -0.022,-0.02 l 0.004,-13.804 c -0.004,-0.016 0.009,-0.02 0.02,-0.022 z"
           style="fill:none;stroke:#000000;stroke-width:0.324878;stroke-linecap:butt;stroke-linejoin:miter;stroke-miterlimit:4;stroke-dasharray:none;stroke-opacity:1"
           id="path1274" /></g><g
         id="g1276"
         transform="matrix(1,-0.122784,-0.499772,-0.45,0,80.800003)"><path
           d="m 189.556,109.911 13.805,0.001 c 0.01,-0.003 0.021,0.003 0.021,0.02 v 13.802 c -0.003,0.01 -0.01,0.02 -0.024,0.024 l -13.804,-10e-4 c -0.011,0.003 -0.022,-0.011 -0.019,-0.021 l -0.003,-13.81 c -0.001,-0.008 0.009,-0.02 0.024,-0.015 z"
           style="fill:none;stroke:#000000;stroke-width:0.324878;stroke-linecap:butt;stroke-linejoin:miter;stroke-miterlimit:4;stroke-dasharray:none;stroke-opacity:1"
           id="path1278" /></g><g
         id="g1280"
         transform="matrix(1,-0.122784,-0.499772,-0.45,0,80.800003)"><path
           d="m 189.553,95.736 h 13.809 c 0.01,-0.003 0.021,0.011 0.018,0.021 v 13.802 c 0.004,0.016 -0.01,0.02 -0.02,0.023 l -13.805,-10e-4 c -0.01,0.003 -0.025,-0.01 -0.022,-0.02 l 0.001,-13.802 c -0.001,-0.017 0.005,-0.028 0.019,-0.023 z"
           style="fill:none;stroke:#000000;stroke-width:0.324878;stroke-linecap:butt;stroke-linejoin:miter;stroke-miterlimit:4;stroke-dasharray:none;stroke-opacity:1"
           id="path1282" /></g><g
         id="g1284"
         transform="matrix(1,-0.122784,-0.499772,-0.45,0,80.800003)"><path
           d="m 189.553,67.386 h 13.805 c 0.014,0.005 0.024,0.011 0.021,0.021 l 0.004,13.809 c -0.003,0.01 -0.01,0.02 -0.02,0.023 h -13.809 c -0.014,-0.004 -0.021,-0.011 -0.022,-0.028 l 10e-4,-13.802 c -10e-4,-0.009 0.009,-0.02 0.02,-0.023 z"
           style="fill:none;stroke:#000000;stroke-width:0.324878;stroke-linecap:butt;stroke-linejoin:miter;stroke-miterlimit:4;stroke-dasharray:none;stroke-opacity:1"
           id="path1286" /></g><g
         id="g1288"
         transform="matrix(1,-0.122784,-0.499772,-0.45,0,80.800003)"><path
           d="m 189.558,53.218 13.801,-0.007 c 0.014,0.005 0.021,0.011 0.022,0.028 v 13.803 c 0,0.008 -0.01,0.02 -0.02,0.022 h -13.805 c -0.014,-0.005 -0.025,-0.011 -0.022,-0.02 l -0.003,-13.81 c 0.003,-0.01 0.013,-0.021 0.027,-0.016 z"
           style="fill:none;stroke:#000000;stroke-width:0.324878;stroke-linecap:butt;stroke-linejoin:miter;stroke-miterlimit:4;stroke-dasharray:none;stroke-opacity:1"
           id="path1290" /></g><g
         id="g1292"
         transform="matrix(1,-0.122784,-0.499772,-0.45,0,80.800003)"><path
           d="m 175.385,81.564 13.801,-0.007 c 0.014,0.005 0.021,0.012 0.022,0.029 l -0.001,13.802 c 0.001,0.009 -0.009,0.02 -0.019,0.023 L 175.383,95.41 c -0.015,-0.005 -0.025,-0.01 -0.022,-0.02 l -0.004,-13.81 c 0.004,-0.009 0.01,-0.02 0.028,-0.016 z"
           style="fill:none;stroke:#000000;stroke-width:0.324878;stroke-linecap:butt;stroke-linejoin:miter;stroke-miterlimit:4;stroke-dasharray:none;stroke-opacity:1"
           id="path1294" /></g><g
         id="g1296"
         transform="matrix(1,-0.122784,-0.499772,-0.45,0,80.800003)"><path
           d="m 175.382,109.907 13.805,0.001 c 0.01,-0.003 0.021,0.011 0.021,0.02 v 13.81 c 0.001,0.009 -0.009,0.02 -0.023,0.016 l -13.805,-0.001 c -0.011,0.003 -0.018,-0.004 -0.022,-0.02 l 0.004,-13.803 c -0.004,-0.016 0.009,-0.02 0.02,-0.023 z"
           style="fill:none;stroke:#000000;stroke-width:0.324878;stroke-linecap:butt;stroke-linejoin:miter;stroke-miterlimit:4;stroke-dasharray:none;stroke-opacity:1"
           id="path1298" /></g><g
         id="g1300"
         transform="matrix(1,-0.122784,-0.499772,-0.45,0,80.800003)"><path
           d="m 175.379,95.732 13.805,0.001 c 0.015,0.005 0.025,0.01 0.022,0.02 l 0.004,13.81 c -0.003,0.009 -0.01,0.02 -0.024,0.023 h -13.805 c -0.014,-0.005 -0.021,-0.012 -0.022,-0.029 l 0.001,-13.802 c -0.001,-0.009 0.009,-0.02 0.019,-0.023 z"
           style="fill:none;stroke:#000000;stroke-width:0.324878;stroke-linecap:butt;stroke-linejoin:miter;stroke-miterlimit:4;stroke-dasharray:none;stroke-opacity:1"
           id="path1302" /></g><g
         id="g1304"
         transform="matrix(1,-0.122784,-0.499772,-0.45,0,80.800003)"><path
           d="m 175.382,67.389 13.805,0.001 c 0.011,-0.003 0.018,0.004 0.022,0.02 l -0.004,13.803 c 0.005,0.016 -0.009,0.02 -0.02,0.023 L 175.38,81.235 c -0.01,0.003 -0.021,-0.011 -0.021,-0.02 l 0.004,-13.803 c -0.005,-0.016 0.005,-0.027 0.019,-0.023 z"
           style="fill:none;stroke:#000000;stroke-width:0.324878;stroke-linecap:butt;stroke-linejoin:miter;stroke-miterlimit:4;stroke-dasharray:none;stroke-opacity:1"
           id="path1306" /></g><g
         id="g1308"
         transform="matrix(1,-0.122784,-0.499772,-0.45,0,80.800003)"><path
           d="m 175.38,53.215 h 13.805 c 0.011,-0.003 0.025,0.011 0.022,0.02 v 13.803 c 0,0.017 -0.006,0.027 -0.02,0.022 l -13.809,0.001 c -0.01,0.002 -0.017,-0.004 -0.018,-0.021 V 53.237 c -0.004,-0.016 0.01,-0.02 0.02,-0.022 z"
           style="fill:none;stroke:#000000;stroke-width:0.324878;stroke-linecap:butt;stroke-linejoin:miter;stroke-miterlimit:4;stroke-dasharray:none;stroke-opacity:1"
           id="path1310" /></g><g
         id="g1312"
         transform="matrix(1,-0.122784,-0.499772,-0.45,0,80.800003)"><path
           d="m 147.037,81.564 13.801,-0.007 c 0.014,0.005 0.022,0.012 0.026,0.028 l -0.004,13.803 c 0,0.009 -0.01,0.02 -0.02,0.023 L 147.035,95.41 c -0.014,-0.004 -0.021,-0.011 -0.022,-0.02 V 81.58 c 0,-0.009 0.01,-0.02 0.024,-0.016 z"
           style="fill:none;stroke:#000000;stroke-width:0.324878;stroke-linecap:butt;stroke-linejoin:miter;stroke-miterlimit:4;stroke-dasharray:none;stroke-opacity:1"
           id="path1314" /></g><g
         id="g1316"
         transform="matrix(1,-0.122784,-0.499772,-0.45,0,80.800003)"><path
           d="m 147.034,109.907 13.805,0.001 c 0.01,-0.003 0.025,0.01 0.022,0.02 l 0.003,13.81 c -0.003,0.009 -0.009,0.02 -0.027,0.016 l -13.805,-0.001 c -0.01,0.003 -0.017,-0.004 -0.018,-0.021 V 109.93 c -0.004,-0.016 0.01,-0.02 0.02,-0.023 z"
           style="fill:none;stroke:#000000;stroke-width:0.324878;stroke-linecap:butt;stroke-linejoin:miter;stroke-miterlimit:4;stroke-dasharray:none;stroke-opacity:1"
           id="path1318" /></g><g
         id="g1320"
         transform="matrix(1,-0.122784,-0.499772,-0.45,0,80.800003)"><path
           d="m 147.032,95.733 13.808,-0.001 c 0.015,0.005 0.022,0.012 0.019,0.021 l 0.003,13.81 c 0,0.009 -0.009,0.02 -0.02,0.023 l -13.805,-0.001 c -0.014,-0.005 -0.025,-0.01 -0.025,-0.027 V 95.755 c 0.003,-0.009 0.01,-0.02 0.02,-0.022 z"
           style="fill:none;stroke:#000000;stroke-width:0.324878;stroke-linecap:butt;stroke-linejoin:miter;stroke-miterlimit:4;stroke-dasharray:none;stroke-opacity:1"
           id="path1322" /></g><g
         id="g1324"
         transform="matrix(1,-0.122784,-0.499772,-0.45,0,80.800003)"><path
           d="m 147.035,67.39 h 13.805 c 0.01,-0.003 0.021,0.003 0.022,0.02 l -0.001,13.803 c 0.001,0.017 -0.009,0.02 -0.02,0.022 l -13.808,0.001 c -0.01,0.003 -0.021,-0.012 -0.018,-0.021 V 67.412 c -0.004,-0.016 0.006,-0.027 0.02,-0.022 z"
           style="fill:none;stroke:#000000;stroke-width:0.324878;stroke-linecap:butt;stroke-linejoin:miter;stroke-miterlimit:4;stroke-dasharray:none;stroke-opacity:1"
           id="path1326" /></g><g
         id="g1328"
         transform="matrix(1,-0.122784,-0.499772,-0.45,0,80.800003)"><path
           d="m 147.036,53.214 13.805,0.001 c 0.011,-0.003 0.022,0.011 0.019,0.021 l -0.001,13.802 c 0.004,0.016 -0.006,0.027 -0.02,0.023 L 147.034,67.06 c -0.01,0.003 -0.021,-0.003 -0.021,-0.02 V 53.238 c -0.001,-0.017 0.01,-0.02 0.023,-0.024 z"
           style="fill:none;stroke:#000000;stroke-width:0.324878;stroke-linecap:butt;stroke-linejoin:miter;stroke-miterlimit:4;stroke-dasharray:none;stroke-opacity:1"
           id="path1330" /></g><g
         id="g1332"
         transform="matrix(1,-0.122784,-0.499772,-0.45,0,80.800003)"><path
           d="m 161.207,81.561 13.805,10e-4 c 0.011,-0.003 0.025,0.01 0.022,0.02 l -0.001,13.802 c 0.001,0.017 -0.005,0.027 -0.019,0.023 h -13.809 c -0.01,0.003 -0.017,-0.004 -0.018,-0.021 V 81.584 c -0.004,-0.017 0.01,-0.02 0.02,-0.023 z"
           style="fill:none;stroke:#000000;stroke-width:0.324878;stroke-linecap:butt;stroke-linejoin:miter;stroke-miterlimit:4;stroke-dasharray:none;stroke-opacity:1"
           id="path1334" /></g><g
         id="g1336"
         transform="matrix(1,-0.122784,-0.499772,-0.45,0,80.800003)"><path
           d="m 161.208,109.911 13.805,-0.008 c 0.014,0.005 0.021,0.012 0.022,0.029 l -0.001,13.802 c 0.001,0.009 -0.009,0.02 -0.02,0.023 l -13.805,-0.001 c -0.01,0.003 -0.024,-0.01 -0.021,-0.02 l -0.004,-13.809 c 0.003,-0.01 0.01,-0.02 0.024,-0.016 z"
           style="fill:none;stroke:#000000;stroke-width:0.324878;stroke-linecap:butt;stroke-linejoin:miter;stroke-miterlimit:4;stroke-dasharray:none;stroke-opacity:1"
           id="path1338" /></g><g
         id="g1340"
         transform="matrix(1,-0.122784,-0.499772,-0.45,0,80.800003)"><path
           d="m 161.209,95.736 h 13.805 c 0.011,-0.003 0.022,0.012 0.022,0.02 l -0.004,13.804 c 0.004,0.016 -0.009,0.02 -0.02,0.022 h -13.805 c -0.01,0.003 -0.021,-0.012 -0.021,-0.02 l 0.003,-13.804 c -0.004,-0.016 0.006,-0.027 0.02,-0.022 z"
           style="fill:none;stroke:#000000;stroke-width:0.324878;stroke-linecap:butt;stroke-linejoin:miter;stroke-miterlimit:4;stroke-dasharray:none;stroke-opacity:1"
           id="path1342" /></g><g
         id="g1344"
         transform="matrix(1,-0.122784,-0.499772,-0.45,0,80.800003)"><path
           d="m 161.209,67.385 13.805,10e-4 c 0.014,0.005 0.021,0.011 0.018,0.021 l 0.003,13.81 c 0.001,0.008 -0.009,0.02 -0.02,0.023 L 161.21,81.239 c -0.014,-0.005 -0.024,-0.011 -0.025,-0.028 V 67.409 c 0.003,-0.01 0.01,-0.02 0.024,-0.024 z"
           style="fill:none;stroke:#000000;stroke-width:0.324878;stroke-linecap:butt;stroke-linejoin:miter;stroke-miterlimit:4;stroke-dasharray:none;stroke-opacity:1"
           id="path1346" /></g><g
         id="g1348"
         transform="matrix(1,-0.122784,-0.499772,-0.45,0,80.800003)"><path
           d="m 161.21,53.218 13.801,-0.007 c 0.015,0.005 0.022,0.012 0.026,0.028 v 13.802 c -0.004,0.01 -0.013,0.021 -0.024,0.024 l -13.805,-0.001 c -0.014,-0.005 -0.021,-0.011 -0.022,-0.02 l 0.001,-13.811 c -0.001,-0.008 0.009,-0.02 0.023,-0.015 z"
           style="fill:none;stroke:#000000;stroke-width:0.324878;stroke-linecap:butt;stroke-linejoin:miter;stroke-miterlimit:4;stroke-dasharray:none;stroke-opacity:1"
           id="path1350" /></g><g
         id="g1352"
         transform="matrix(1,-0.122784,-0.499772,-0.45,0,80.800003)"><path
           d="m 62.21,82.019 13.805,10e-4 c 0.014,0.004 0.021,0.011 0.021,0.02 v 13.81 c 0.001,0.009 -0.009,0.02 -0.02,0.023 H 62.211 C 62.197,95.868 62.19,95.861 62.186,95.845 V 82.043 c 0.003,-0.01 0.013,-0.021 0.024,-0.024 z"
           style="fill:none;stroke:#000000;stroke-width:0.324878;stroke-linecap:butt;stroke-linejoin:miter;stroke-miterlimit:4;stroke-dasharray:none;stroke-opacity:1"
           id="path1354" /></g><g
         id="g1356"
         transform="matrix(1,-0.122784,-0.499772,-0.45,0,80.800003)"><path
           d="m 62.21,110.369 13.805,0.001 c 0.011,-0.003 0.018,0.004 0.022,0.02 v 13.802 c 0,0.018 -0.013,0.021 -0.024,0.024 l -13.805,-10e-4 c -0.01,0.003 -0.021,-0.011 -0.021,-0.02 l 0.004,-13.803 c -0.005,-0.016 0.005,-0.027 0.019,-0.023 z"
           style="fill:none;stroke:#000000;stroke-width:0.324878;stroke-linecap:butt;stroke-linejoin:miter;stroke-miterlimit:4;stroke-dasharray:none;stroke-opacity:1"
           id="path1358" /></g><g
         id="g1360"
         transform="matrix(1,-0.122784,-0.499772,-0.45,0,80.800003)"><path
           d="m 62.208,96.195 h 13.805 c 0.011,-0.003 0.025,0.011 0.022,0.02 v 13.803 c 0,0.017 -0.006,0.027 -0.02,0.022 H 62.21 c -0.014,0.004 -0.021,-0.003 -0.022,-0.02 V 96.217 c 0,-0.017 0.01,-0.02 0.02,-0.022 z"
           style="fill:none;stroke:#000000;stroke-width:0.324878;stroke-linecap:butt;stroke-linejoin:miter;stroke-miterlimit:4;stroke-dasharray:none;stroke-opacity:1"
           id="path1362" /></g><g
         id="g1364"
         transform="matrix(1,-0.122784,-0.499772,-0.45,0,80.800003)"><path
           d="m 62.207,67.844 13.805,0.001 c 0.015,0.005 0.022,0.011 0.026,0.028 v 13.802 c -0.004,0.009 -0.013,0.021 -0.024,0.023 H 62.209 c -0.014,-0.005 -0.021,-0.012 -0.022,-0.02 l 0.001,-13.811 c -0.001,-0.009 0.009,-0.02 0.019,-0.023 z"
           style="fill:none;stroke:#000000;stroke-width:0.324878;stroke-linecap:butt;stroke-linejoin:miter;stroke-miterlimit:4;stroke-dasharray:none;stroke-opacity:1"
           id="path1366" /></g><g
         id="g1368"
         transform="matrix(1,-0.122784,-0.499772,-0.45,0,80.800003)"><path
           d="m 62.209,53.677 h 13.809 c 0.01,-0.003 0.017,0.004 0.018,0.021 L 76.035,67.5 c 0.001,0.017 -0.009,0.02 -0.019,0.023 L 62.211,67.522 c -0.011,0.003 -0.025,-0.01 -0.022,-0.02 V 53.7 c 0,-0.017 0.006,-0.028 0.02,-0.023 z"
           style="fill:none;stroke:#000000;stroke-width:0.324878;stroke-linecap:butt;stroke-linejoin:miter;stroke-miterlimit:4;stroke-dasharray:none;stroke-opacity:1"
           id="path1370" /></g><g
         id="g1372"
         transform="matrix(1,-0.122784,-0.499772,-0.45,0,80.800003)"><path
           d="m 118.901,82.019 13.805,10e-4 c 0.014,0.005 0.021,0.011 0.022,0.02 l 0.003,13.81 c -0.003,0.009 -0.013,0.021 -0.023,0.024 l -13.805,-10e-4 c -0.014,-0.005 -0.021,-0.012 -0.026,-0.028 l 0.004,-13.803 c 0,-0.009 0.01,-0.02 0.02,-0.023 z"
           style="fill:none;stroke:#000000;stroke-width:0.324878;stroke-linecap:butt;stroke-linejoin:miter;stroke-miterlimit:4;stroke-dasharray:none;stroke-opacity:1"
           id="path1374" /></g><g
         id="g1376"
         transform="matrix(1,-0.122784,-0.499772,-0.45,0,80.800003)"><path
           d="m 118.902,110.37 h 13.805 c 0.014,-0.003 0.025,0.011 0.022,0.02 l -0.001,13.803 c 0.001,0.017 -0.009,0.02 -0.02,0.022 h -13.805 c -0.013,0.004 -0.024,-0.011 -0.021,-0.02 v -13.803 c -0.001,-0.017 0.006,-0.027 0.02,-0.022 z"
           style="fill:none;stroke:#000000;stroke-width:0.324878;stroke-linecap:butt;stroke-linejoin:miter;stroke-miterlimit:4;stroke-dasharray:none;stroke-opacity:1"
           id="path1378" /></g><g
         id="g1380"
         transform="matrix(1,-0.122784,-0.499772,-0.45,0,80.800003)"><path
           d="m 118.903,96.194 13.805,10e-4 c 0.011,-0.003 0.022,0.011 0.022,0.02 l -0.004,13.803 c 0.004,0.016 -0.006,0.027 -0.02,0.023 l -13.805,-10e-4 c -0.01,0.003 -0.017,-0.004 -0.022,-0.02 l 10e-4,-13.802 c -10e-4,-0.017 0.013,-0.021 0.023,-0.024 z"
           style="fill:none;stroke:#000000;stroke-width:0.324878;stroke-linecap:butt;stroke-linejoin:miter;stroke-miterlimit:4;stroke-dasharray:none;stroke-opacity:1"
           id="path1382" /></g><g
         id="g1384"
         transform="matrix(1,-0.122784,-0.499772,-0.45,0,80.800003)"><path
           d="m 118.899,67.844 h 13.808 c 0.015,0.005 0.022,0.012 0.023,0.029 l -10e-4,13.802 c 0,0.009 -0.009,0.02 -0.02,0.023 l -13.805,-10e-4 c -0.014,-0.005 -0.025,-0.01 -0.022,-0.02 l -0.003,-13.81 c 0.003,-0.009 0.01,-0.02 0.02,-0.023 z"
           style="fill:none;stroke:#000000;stroke-width:0.324878;stroke-linecap:butt;stroke-linejoin:miter;stroke-miterlimit:4;stroke-dasharray:none;stroke-opacity:1"
           id="path1386" /></g><g
         id="g1388"
         transform="matrix(1,-0.122784,-0.499772,-0.45,0,80.800003)"><path
           d="m 118.904,53.676 13.805,10e-4 c 0.01,-0.003 0.018,0.004 0.022,0.02 L 132.727,67.5 c 0.004,0.016 -0.01,0.02 -0.02,0.023 l -13.805,-10e-4 c -0.01,0.003 -0.021,-0.011 -0.022,-0.02 L 118.881,53.7 c -0.001,-0.017 0.009,-0.028 0.023,-0.024 z"
           style="fill:none;stroke:#000000;stroke-width:0.324878;stroke-linecap:butt;stroke-linejoin:miter;stroke-miterlimit:4;stroke-dasharray:none;stroke-opacity:1"
           id="path1390" /></g><g
         id="g1392"
         transform="matrix(1,-0.122784,-0.499772,-0.45,0,80.800003)"><path
           d="m 104.731,82.023 h 13.805 c 0.01,-0.002 0.018,0.004 0.022,0.02 l -0.004,13.804 c 0.004,0.016 -0.01,0.02 -0.02,0.022 h -13.805 c -0.01,0.003 -0.021,-0.012 -0.022,-0.02 l 0.001,-13.803 c -0.001,-0.017 0.009,-0.028 0.023,-0.023 z"
           style="fill:none;stroke:#000000;stroke-width:0.324878;stroke-linecap:butt;stroke-linejoin:miter;stroke-miterlimit:4;stroke-dasharray:none;stroke-opacity:1"
           id="path1394" /></g><g
         id="g1396"
         transform="matrix(1,-0.122784,-0.499772,-0.45,0,80.800003)"><path
           d="m 104.728,110.366 h 13.805 c 0.014,0.005 0.021,0.012 0.022,0.02 l 0.003,13.81 c -0.003,0.01 -0.013,0.021 -0.023,0.024 l -13.805,-0.001 c -0.014,-0.005 -0.022,-0.011 -0.026,-0.027 l 0.004,-13.804 c 0,-0.008 0.01,-0.02 0.02,-0.022 z"
           style="fill:none;stroke:#000000;stroke-width:0.324878;stroke-linecap:butt;stroke-linejoin:miter;stroke-miterlimit:4;stroke-dasharray:none;stroke-opacity:1"
           id="path1398" /></g><g
         id="g1400"
         transform="matrix(1,-0.122784,-0.499772,-0.45,0,80.800003)"><path
           d="m 104.73,96.198 13.801,-0.007 c 0.017,0.004 0.025,0.011 0.025,0.028 v 13.802 c -0.003,0.01 -0.01,0.02 -0.02,0.023 h -13.805 c -0.017,-0.004 -0.025,-0.011 -0.022,-0.021 l -0.003,-13.809 c 0.003,-0.01 0.01,-0.02 0.024,-0.016 z"
           style="fill:none;stroke:#000000;stroke-width:0.324878;stroke-linecap:butt;stroke-linejoin:miter;stroke-miterlimit:4;stroke-dasharray:none;stroke-opacity:1"
           id="path1402" /></g><g
         id="g1404"
         transform="matrix(1,-0.122784,-0.499772,-0.45,0,80.800003)"><path
           d="m 104.729,67.848 13.805,0.001 c 0.01,-0.003 0.021,0.011 0.022,0.02 l -10e-4,13.802 c 10e-4,0.017 -0.009,0.028 -0.023,0.024 l -13.805,-10e-4 c -0.01,0.003 -0.018,-0.004 -0.018,-0.021 V 67.871 c -0.004,-0.016 0.01,-0.02 0.02,-0.023 z"
           style="fill:none;stroke:#000000;stroke-width:0.324878;stroke-linecap:butt;stroke-linejoin:miter;stroke-miterlimit:4;stroke-dasharray:none;stroke-opacity:1"
           id="path1406" /></g><g
         id="g1408"
         transform="matrix(1,-0.122784,-0.499772,-0.45,0,80.800003)"><path
           d="m 104.727,53.673 h 13.808 c 0.014,0.005 0.022,0.011 0.018,0.021 l 0.004,13.81 c 0,0.008 -0.01,0.02 -0.024,0.015 l -13.801,0.007 c -0.014,-0.005 -0.025,-0.011 -0.026,-0.028 l 10e-4,-13.802 c 0.003,-0.01 0.009,-0.02 0.02,-0.023 z"
           style="fill:none;stroke:#000000;stroke-width:0.324878;stroke-linecap:butt;stroke-linejoin:miter;stroke-miterlimit:4;stroke-dasharray:none;stroke-opacity:1"
           id="path1410" /></g><g
         id="g1412"
         transform="matrix(1,-0.122784,-0.499772,-0.45,0,80.800003)"><path
           d="m 76.383,82.023 13.805,0.001 c 0.011,-0.003 0.018,0.004 0.022,0.02 v 13.802 c 0.001,0.017 -0.013,0.021 -0.024,0.024 L 76.381,95.869 c -0.01,0.003 -0.021,-0.011 -0.021,-0.02 l 0.004,-13.803 c -0.005,-0.016 0.005,-0.028 0.019,-0.023 z"
           style="fill:none;stroke:#000000;stroke-width:0.324878;stroke-linecap:butt;stroke-linejoin:miter;stroke-miterlimit:4;stroke-dasharray:none;stroke-opacity:1"
           id="path1414" /></g><g
         id="g1416"
         transform="matrix(1,-0.122784,-0.499772,-0.45,0,80.800003)"><path
           d="m 76.38,110.366 13.805,0.001 c 0.015,0.004 0.025,0.01 0.022,0.02 l 0.004,13.809 c -0.003,0.01 -0.01,0.02 -0.02,0.023 H 76.386 c -0.018,-0.004 -0.025,-0.011 -0.026,-0.028 l 0.001,-13.802 c 0.003,-0.01 0.009,-0.02 0.019,-0.023 z"
           style="fill:none;stroke:#000000;stroke-width:0.324878;stroke-linecap:butt;stroke-linejoin:miter;stroke-miterlimit:4;stroke-dasharray:none;stroke-opacity:1"
           id="path1418" /></g><g
         id="g1420"
         transform="matrix(1,-0.122784,-0.499772,-0.45,0,80.800003)"><path
           d="m 76.386,96.198 13.801,-0.007 c 0.014,0.005 0.021,0.011 0.025,0.028 l -0.004,13.803 c 0.001,0.008 -0.009,0.02 -0.019,0.022 H 76.384 c -0.015,-0.005 -0.022,-0.012 -0.022,-0.02 l -0.003,-13.81 c 0.003,-0.01 0.012,-0.021 0.027,-0.016 z"
           style="fill:none;stroke:#000000;stroke-width:0.324878;stroke-linecap:butt;stroke-linejoin:miter;stroke-miterlimit:4;stroke-dasharray:none;stroke-opacity:1"
           id="path1422" /></g><g
         id="g1424"
         transform="matrix(1,-0.122784,-0.499772,-0.45,0,80.800003)"><path
           d="m 76.381,67.848 13.805,0.001 c 0.014,-0.004 0.025,0.011 0.022,0.02 v 13.802 c 0,0.017 -0.006,0.028 -0.02,0.023 L 76.383,81.693 c -0.011,0.003 -0.021,-0.003 -0.022,-0.02 l 10e-4,-13.802 c -10e-4,-0.017 0.009,-0.02 0.019,-0.023 z"
           style="fill:none;stroke:#000000;stroke-width:0.324878;stroke-linecap:butt;stroke-linejoin:miter;stroke-miterlimit:4;stroke-dasharray:none;stroke-opacity:1"
           id="path1426" /></g><g
         id="g1428"
         transform="matrix(1,-0.122784,-0.499772,-0.45,0,80.800003)"><path
           d="m 76.383,53.673 h 13.805 c 0.014,0.005 0.021,0.012 0.021,0.02 v 13.811 c 10e-4,0.009 -0.009,0.02 -0.023,0.015 L 76.384,67.526 C 76.37,67.521 76.363,67.515 76.359,67.499 V 53.696 c 0.003,-0.009 0.013,-0.021 0.024,-0.023 z"
           style="fill:none;stroke:#000000;stroke-width:0.324878;stroke-linecap:butt;stroke-linejoin:miter;stroke-miterlimit:4;stroke-dasharray:none;stroke-opacity:1"
           id="path1430" /></g><g
         id="g1432"
         transform="matrix(1,-0.122784,-0.499772,-0.45,0,80.800003)"><path
           d="m 90.554,82.02 h 13.805 c 0.017,0.004 0.024,0.011 0.021,0.02 l 0.004,13.81 c -0.003,0.01 -0.01,0.02 -0.02,0.023 L 90.559,95.872 c -0.014,-0.005 -0.025,-0.01 -0.026,-0.027 l 0.001,-13.803 c 0.003,-0.009 0.009,-0.02 0.02,-0.022 z"
           style="fill:none;stroke:#000000;stroke-width:0.324878;stroke-linecap:butt;stroke-linejoin:miter;stroke-miterlimit:4;stroke-dasharray:none;stroke-opacity:1"
           id="path1434" /></g><g
         id="g1436"
         transform="matrix(1,-0.122784,-0.499772,-0.45,0,80.800003)"><path
           d="m 90.558,110.369 13.805,0.001 c 0.01,-0.003 0.017,0.004 0.022,0.02 l -0.004,13.803 c 0.004,0.016 -0.01,0.02 -0.02,0.023 l -13.805,-10e-4 c -0.01,0.003 -0.022,-0.011 -0.022,-0.02 l 10e-4,-13.802 c -10e-4,-0.017 0.009,-0.029 0.023,-0.024 z"
           style="fill:none;stroke:#000000;stroke-width:0.324878;stroke-linecap:butt;stroke-linejoin:miter;stroke-miterlimit:4;stroke-dasharray:none;stroke-opacity:1"
           id="path1438" /></g><g
         id="g1440"
         transform="matrix(1,-0.122784,-0.499772,-0.45,0,80.800003)"><path
           d="m 90.556,96.194 13.805,10e-4 c 0.01,-0.003 0.021,0.011 0.021,0.02 v 13.802 c 10e-4,0.017 -0.009,0.029 -0.023,0.024 L 90.554,110.04 c -0.011,0.003 -0.018,-0.004 -0.022,-0.02 l 0.004,-13.803 c -0.004,-0.016 0.009,-0.02 0.02,-0.023 z"
           style="fill:none;stroke:#000000;stroke-width:0.324878;stroke-linecap:butt;stroke-linejoin:miter;stroke-miterlimit:4;stroke-dasharray:none;stroke-opacity:1"
           id="path1442" /></g><g
         id="g1444"
         transform="matrix(1,-0.122784,-0.499772,-0.45,0,80.800003)"><path
           d="m 90.555,67.844 h 13.805 c 0.014,0.005 0.021,0.012 0.026,0.028 l -0.004,13.803 c 0,0.009 -0.01,0.02 -0.02,0.023 H 90.557 C 90.543,81.693 90.535,81.686 90.535,81.677 L 90.532,67.868 c 0.003,-0.01 0.013,-0.021 0.023,-0.024 z"
           style="fill:none;stroke:#000000;stroke-width:0.324878;stroke-linecap:butt;stroke-linejoin:miter;stroke-miterlimit:4;stroke-dasharray:none;stroke-opacity:1"
           id="path1446" /></g><g
         id="g1448"
         transform="matrix(1,-0.122784,-0.499772,-0.45,0,80.800003)"><path
           d="m 90.557,53.677 h 13.805 c 0.01,-0.002 0.017,0.004 0.021,0.02 V 67.5 c 0.001,0.017 -0.013,0.021 -0.023,0.023 H 90.555 c -0.011,0.003 -0.022,-0.012 -0.019,-0.021 L 90.537,53.7 c -0.004,-0.017 0.005,-0.028 0.02,-0.023 z"
           style="fill:none;stroke:#000000;stroke-width:0.324878;stroke-linecap:butt;stroke-linejoin:miter;stroke-miterlimit:4;stroke-dasharray:none;stroke-opacity:1"
           id="path1450" /></g><g
         id="g1452"
         transform="matrix(1,-0.122784,-0.499772,-0.45,0,80.800003)"><path
           d="m 62.224,11.624 13.805,10e-4 c 0.014,0.005 0.021,0.012 0.018,0.021 l 0.003,13.81 c 0.001,0.009 -0.009,0.02 -0.02,0.023 L 62.225,25.478 c -0.014,-0.005 -0.024,-0.01 -0.021,-0.02 L 62.2,11.648 c 0.003,-0.009 0.01,-0.02 0.024,-0.024 z"
           style="fill:none;stroke:#000000;stroke-width:0.324878;stroke-linecap:butt;stroke-linejoin:miter;stroke-miterlimit:4;stroke-dasharray:none;stroke-opacity:1"
           id="path1454" /></g><g
         id="g1456"
         transform="matrix(1,-0.122784,-0.499772,-0.45,0,80.800003)"><path
           d="m 62.224,39.975 13.805,10e-4 c 0.011,-0.003 0.022,0.011 0.022,0.02 l -0.004,13.803 c 0.005,0.016 -0.005,0.027 -0.02,0.023 L 62.222,53.821 c -0.01,0.003 -0.021,-0.012 -0.021,-0.02 l 0.004,-13.803 c -0.005,-0.016 0.009,-0.02 0.019,-0.023 z"
           style="fill:none;stroke:#000000;stroke-width:0.324878;stroke-linecap:butt;stroke-linejoin:miter;stroke-miterlimit:4;stroke-dasharray:none;stroke-opacity:1"
           id="path1458" /></g><g
         id="g1460"
         transform="matrix(1,-0.122784,-0.499772,-0.45,0,80.800003)"><path
           d="m 62.222,25.8 13.805,10e-4 c 0.011,-0.003 0.025,0.01 0.022,0.02 l 0.003,13.81 c -0.003,0.009 -0.009,0.02 -0.023,0.015 H 62.22 c -0.01,0.003 -0.017,-0.004 -0.018,-0.021 V 25.823 c 0,-0.009 0.01,-0.02 0.02,-0.023 z"
           style="fill:none;stroke:#000000;stroke-width:0.324878;stroke-linecap:butt;stroke-linejoin:miter;stroke-miterlimit:4;stroke-dasharray:none;stroke-opacity:1"
           id="path1462" /></g><g
         id="g1464"
         transform="matrix(1,-0.122784,-0.499772,-0.45,0,80.800003)"><path
           d="m 62.225,-2.543 13.805,0.001 c 0.011,-0.003 0.018,0.004 0.022,0.02 V 11.28 c -0.003,0.01 -0.013,0.021 -0.024,0.024 L 62.223,11.303 c -0.01,0.003 -0.021,-0.011 -0.021,-0.02 v -13.81 c -10e-4,-0.009 0.009,-0.02 0.023,-0.016 z"
           style="fill:none;stroke:#000000;stroke-width:0.324878;stroke-linecap:butt;stroke-linejoin:miter;stroke-miterlimit:4;stroke-dasharray:none;stroke-opacity:1"
           id="path1466" /></g><g
         id="g1468"
         transform="matrix(1,-0.122784,-0.499772,-0.45,0,80.800003)"><path
           d="m 62.223,-16.717 h 13.805 c 0.011,-0.003 0.025,0.011 0.022,0.02 v 13.803 c 0,0.017 -0.01,0.019 -0.02,0.022 l -13.809,10e-4 c -0.01,0.002 -0.021,-0.012 -0.018,-0.021 v -13.803 c -0.004,-0.016 0.006,-0.027 0.02,-0.022 z"
           style="fill:none;stroke:#000000;stroke-width:0.324878;stroke-linecap:butt;stroke-linejoin:miter;stroke-miterlimit:4;stroke-dasharray:none;stroke-opacity:1"
           id="path1470" /></g><g
         id="g1472"
         transform="matrix(1,-0.122784,-0.499772,-0.45,0,80.800003)"><path
           d="m 118.915,11.625 h 13.805 c 0.014,0.005 0.022,0.012 0.022,0.02 l 0.003,13.81 c -0.003,0.01 -0.013,0.021 -0.023,0.024 l -13.805,-10e-4 c -0.014,-0.004 -0.021,-0.011 -0.022,-0.02 v -13.81 c 0,-0.009 0.01,-0.02 0.02,-0.023 z"
           style="fill:none;stroke:#000000;stroke-width:0.324878;stroke-linecap:butt;stroke-linejoin:miter;stroke-miterlimit:4;stroke-dasharray:none;stroke-opacity:1"
           id="path1474" /></g><g
         id="g1476"
         transform="matrix(1,-0.122784,-0.499772,-0.45,0,80.800003)"><path
           d="m 118.916,39.975 13.805,10e-4 c 0.01,-0.003 0.025,0.01 0.022,0.02 l -0.001,13.802 c 0.001,0.017 -0.005,0.028 -0.02,0.023 h -13.808 c -0.01,0.003 -0.021,-0.011 -0.018,-0.021 V 39.998 c -0.004,-0.016 0.01,-0.02 0.02,-0.023 z"
           style="fill:none;stroke:#000000;stroke-width:0.324878;stroke-linecap:butt;stroke-linejoin:miter;stroke-miterlimit:4;stroke-dasharray:none;stroke-opacity:1"
           id="path1478" /></g><g
         id="g1480"
         transform="matrix(1,-0.122784,-0.499772,-0.45,0,80.800003)"><path
           d="m 118.917,25.8 h 13.805 c 0.011,-0.003 0.022,0.012 0.019,0.021 l 0.003,13.81 c 0,0.009 -0.01,0.02 -0.024,0.015 h -13.805 c -0.01,0.002 -0.021,-0.003 -0.021,-0.021 V 25.823 c 0.003,-0.009 0.01,-0.02 0.023,-0.023 z"
           style="fill:none;stroke:#000000;stroke-width:0.324878;stroke-linecap:butt;stroke-linejoin:miter;stroke-miterlimit:4;stroke-dasharray:none;stroke-opacity:1"
           id="path1482" /></g><g
         id="g1484"
         transform="matrix(1,-0.122784,-0.499772,-0.45,0,80.800003)"><path
           d="m 118.917,-2.542 h 13.805 c 0.01,-0.003 0.021,0.003 0.022,0.02 l -0.001,13.803 c -0.003,0.009 -0.009,0.02 -0.02,0.022 l -13.808,10e-4 c -0.01,0.002 -0.022,-0.012 -0.018,-0.021 l -0.004,-13.81 c 0.003,-0.01 0.01,-0.02 0.024,-0.015 z"
           style="fill:none;stroke:#000000;stroke-width:0.324878;stroke-linecap:butt;stroke-linejoin:miter;stroke-miterlimit:4;stroke-dasharray:none;stroke-opacity:1"
           id="path1486" /></g><g
         id="g1488"
         transform="matrix(1,-0.122784,-0.499772,-0.45,0,80.800003)"><path
           d="m 118.918,-16.718 13.805,0.001 c 0.011,-0.003 0.022,0.011 0.022,0.02 l -0.004,13.803 c 0.004,0.016 -0.009,0.02 -0.02,0.023 l -13.805,-10e-4 c -0.01,0.003 -0.021,-0.012 -0.022,-0.02 l 10e-4,-13.802 c -10e-4,-0.018 0.009,-0.029 0.023,-0.024 z"
           style="fill:none;stroke:#000000;stroke-width:0.324878;stroke-linecap:butt;stroke-linejoin:miter;stroke-miterlimit:4;stroke-dasharray:none;stroke-opacity:1"
           id="path1490" /></g><g
         id="g1492"
         transform="matrix(1,-0.122784,-0.499772,-0.45,0,80.800003)"><path
           d="m 104.745,11.628 13.805,10e-4 c 0.01,-0.003 0.021,0.011 0.018,0.021 v 13.802 c 0.004,0.016 -0.006,0.028 -0.02,0.023 l -13.805,-0.001 c -0.01,0.003 -0.025,-0.01 -0.022,-0.02 l 10e-4,-13.802 c -10e-4,-0.017 0.009,-0.029 0.023,-0.024 z"
           style="fill:none;stroke:#000000;stroke-width:0.324878;stroke-linecap:butt;stroke-linejoin:miter;stroke-miterlimit:4;stroke-dasharray:none;stroke-opacity:1"
           id="path1494" /></g><g
         id="g1496"
         transform="matrix(1,-0.122784,-0.499772,-0.45,0,80.800003)"><path
           d="m 104.742,39.971 13.805,0.001 c 0.014,0.005 0.021,0.011 0.022,0.02 v 13.811 c 0,0.008 -0.01,0.02 -0.02,0.022 h -13.805 c -0.014,-0.005 -0.021,-0.012 -0.022,-0.02 V 39.994 c 0,-0.009 0.01,-0.02 0.02,-0.023 z"
           style="fill:none;stroke:#000000;stroke-width:0.324878;stroke-linecap:butt;stroke-linejoin:miter;stroke-miterlimit:4;stroke-dasharray:none;stroke-opacity:1"
           id="path1498" /></g><g
         id="g1500"
         transform="matrix(1,-0.122784,-0.499772,-0.45,0,80.800003)"><path
           d="m 104.744,25.804 13.805,0.001 c 0.01,-0.003 0.021,0.003 0.022,0.02 l -0.001,13.802 c -0.003,0.009 -0.009,0.02 -0.02,0.023 h -13.808 c -0.011,0.003 -0.022,-0.012 -0.019,-0.021 l -0.003,-13.81 c 0,-0.008 0.01,-0.02 0.024,-0.015 z"
           style="fill:none;stroke:#000000;stroke-width:0.324878;stroke-linecap:butt;stroke-linejoin:miter;stroke-miterlimit:4;stroke-dasharray:none;stroke-opacity:1"
           id="path1502" /></g><g
         id="g1504"
         transform="matrix(1,-0.122784,-0.499772,-0.45,0,80.800003)"><path
           d="m 104.743,-2.546 h 13.805 c 0.01,-0.003 0.021,0.012 0.022,0.02 l 0.003,13.81 c -0.003,0.01 -0.013,0.021 -0.027,0.016 h -13.805 c -0.01,0.002 -0.018,-0.004 -0.022,-0.021 l 0.004,-13.803 c 0,-0.008 0.01,-0.02 0.02,-0.022 z"
           style="fill:none;stroke:#000000;stroke-width:0.324878;stroke-linecap:butt;stroke-linejoin:miter;stroke-miterlimit:4;stroke-dasharray:none;stroke-opacity:1"
           id="path1506" /></g><g
         id="g1508"
         transform="matrix(1,-0.122784,-0.499772,-0.45,0,80.800003)"><path
           d="m 104.741,-16.721 h 13.805 c 0.014,0.005 0.025,0.011 0.022,0.02 l 0.003,13.81 c -0.003,0.01 -0.01,0.02 -0.02,0.023 h -13.808 c -0.014,-0.004 -0.022,-0.011 -0.019,-0.021 l -0.003,-13.809 c 0.003,-0.01 0.01,-0.02 0.02,-0.023 z"
           style="fill:none;stroke:#000000;stroke-width:0.324878;stroke-linecap:butt;stroke-linejoin:miter;stroke-miterlimit:4;stroke-dasharray:none;stroke-opacity:1"
           id="path1510" /></g><g
         id="g1512"
         transform="matrix(1,-0.122784,-0.499772,-0.45,0,80.800003)"><path
           d="m 76.398,11.629 h 13.805 c 0.01,-0.003 0.021,0.012 0.021,0.02 v 13.803 c 10e-4,0.017 -0.009,0.028 -0.023,0.023 H 76.396 c -0.011,0.002 -0.022,-0.012 -0.022,-0.02 l 0.004,-13.804 c -0.004,-0.016 0.005,-0.027 0.02,-0.022 z"
           style="fill:none;stroke:#000000;stroke-width:0.324878;stroke-linecap:butt;stroke-linejoin:miter;stroke-miterlimit:4;stroke-dasharray:none;stroke-opacity:1"
           id="path1514" /></g><g
         id="g1516"
         transform="matrix(1,-0.122784,-0.499772,-0.45,0,80.800003)"><path
           d="M 76.395,39.971 90.2,39.972 c 0.014,0.005 0.024,0.011 0.021,0.02 l 0.004,13.81 c -0.003,0.01 -0.01,0.02 -0.02,0.023 H 76.396 C 76.382,53.82 76.375,53.814 76.378,53.804 l -0.003,-13.81 c -0.001,-0.008 0.009,-0.02 0.02,-0.023 z"
           style="fill:none;stroke:#000000;stroke-width:0.324878;stroke-linecap:butt;stroke-linejoin:miter;stroke-miterlimit:4;stroke-dasharray:none;stroke-opacity:1"
           id="path1518" /></g><g
         id="g1520"
         transform="matrix(1,-0.122784,-0.499772,-0.45,0,80.800003)"><path
           d="m 76.4,25.803 13.805,10e-4 c 0.01,-0.003 0.017,0.004 0.018,0.021 v 13.802 c 0,0.009 -0.01,0.02 -0.02,0.023 L 76.398,39.649 c -0.011,0.003 -0.025,-0.01 -0.022,-0.02 l -0.003,-13.81 c 0.003,-0.009 0.009,-0.02 0.027,-0.016 z"
           style="fill:none;stroke:#000000;stroke-width:0.324878;stroke-linecap:butt;stroke-linejoin:miter;stroke-miterlimit:4;stroke-dasharray:none;stroke-opacity:1"
           id="path1522" /></g><g
         id="g1524"
         transform="matrix(1,-0.122784,-0.499772,-0.45,0,80.800003)"><path
           d="M 76.395,-2.546 H 90.2 c 0.011,-0.002 0.025,0.011 0.022,0.021 l 0.004,13.809 c -0.003,0.01 -0.01,0.02 -0.024,0.016 H 76.393 c -0.01,0.003 -0.017,-0.004 -0.018,-0.021 l 0.001,-13.802 c -0.001,-0.009 0.009,-0.02 0.019,-0.023 z"
           style="fill:none;stroke:#000000;stroke-width:0.324878;stroke-linecap:butt;stroke-linejoin:miter;stroke-miterlimit:4;stroke-dasharray:none;stroke-opacity:1"
           id="path1526" /></g><g
         id="g1528"
         transform="matrix(1,-0.122784,-0.499772,-0.45,0,80.800003)"><path
           d="m 76.397,-16.722 13.805,0.001 c 0.014,0.005 0.021,0.011 0.018,0.021 l 0.003,13.81 c 0.001,0.008 -0.009,0.02 -0.019,0.022 H 76.399 c -0.015,-0.005 -0.022,-0.012 -0.022,-0.02 l -0.004,-13.81 c 0.004,-0.01 0.013,-0.021 0.024,-0.024 z"
           style="fill:none;stroke:#000000;stroke-width:0.324878;stroke-linecap:butt;stroke-linejoin:miter;stroke-miterlimit:4;stroke-dasharray:none;stroke-opacity:1"
           id="path1530" /></g><g
         id="g1532"
         transform="matrix(1,-0.122784,-0.499772,-0.45,0,80.800003)"><path
           d="m 90.568,11.625 13.805,10e-4 c 0.014,0.005 0.025,0.01 0.021,0.02 l 0.004,13.81 c -0.003,0.009 -0.01,0.02 -0.02,0.022 L 90.57,25.479 c -0.015,-0.005 -0.022,-0.012 -0.019,-0.021 l -0.003,-13.81 c -0.001,-0.009 0.009,-0.02 0.02,-0.023 z"
           style="fill:none;stroke:#000000;stroke-width:0.324878;stroke-linecap:butt;stroke-linejoin:miter;stroke-miterlimit:4;stroke-dasharray:none;stroke-opacity:1"
           id="path1534" /></g><g
         id="g1536"
         transform="matrix(1,-0.122784,-0.499772,-0.45,0,80.800003)"><path
           d="m 90.572,39.975 h 13.805 c 0.01,-0.003 0.021,0.012 0.018,0.021 v 13.802 c 0.004,0.017 -0.006,0.028 -0.02,0.023 H 90.57 c -0.01,0.002 -0.025,-0.011 -0.022,-0.02 l 0.001,-13.803 c -0.001,-0.017 0.009,-0.02 0.023,-0.023 z"
           style="fill:none;stroke:#000000;stroke-width:0.324878;stroke-linecap:butt;stroke-linejoin:miter;stroke-miterlimit:4;stroke-dasharray:none;stroke-opacity:1"
           id="path1538" /></g><g
         id="g1540"
         transform="matrix(1,-0.122784,-0.499772,-0.45,0,80.800003)"><path
           d="m 90.57,25.8 h 13.805 c 0.01,-0.002 0.021,0.012 0.022,0.021 v 13.81 c 0,0.009 -0.01,0.02 -0.024,0.016 L 90.568,39.646 c -0.01,0.003 -0.018,-0.004 -0.022,-0.02 L 90.55,25.823 c 0,-0.009 0.01,-0.02 0.02,-0.023 z"
           style="fill:none;stroke:#000000;stroke-width:0.324878;stroke-linecap:butt;stroke-linejoin:miter;stroke-miterlimit:4;stroke-dasharray:none;stroke-opacity:1"
           id="path1542" /></g><g
         id="g1544"
         transform="matrix(1,-0.122784,-0.499772,-0.45,0,80.800003)"><path
           d="m 90.573,-2.543 13.805,0.001 c 0.01,-0.003 0.017,0.004 0.018,0.021 v 13.802 c 0,0.008 -0.01,0.02 -0.02,0.023 L 90.571,11.303 c -0.01,0.003 -0.022,-0.011 -0.022,-0.02 l -0.003,-13.81 c 0.003,-0.009 0.013,-0.021 0.027,-0.016 z"
           style="fill:none;stroke:#000000;stroke-width:0.324878;stroke-linecap:butt;stroke-linejoin:miter;stroke-miterlimit:4;stroke-dasharray:none;stroke-opacity:1"
           id="path1546" /></g><g
         id="g1548"
         transform="matrix(1,-0.122784,-0.499772,-0.45,0,80.800003)"><path
           d="m 90.571,-16.718 13.805,0.001 c 0.01,-0.003 0.021,0.011 0.021,0.02 v 13.802 c 10e-4,0.017 -0.013,0.021 -0.023,0.024 L 90.569,-2.872 c -0.011,0.003 -0.022,-0.011 -0.022,-0.02 l 0.004,-13.803 c -0.004,-0.016 0.006,-0.028 0.02,-0.023 z"
           style="fill:none;stroke:#000000;stroke-width:0.324878;stroke-linecap:butt;stroke-linejoin:miter;stroke-miterlimit:4;stroke-dasharray:none;stroke-opacity:1"
           id="path1550" /></g><g
         id="g1552"
         transform="matrix(1,-0.122784,-0.499772,-0.45,0,80.800003)"><path
           d="m 132.994,11.221 13.809,-10e-4 c 0.01,-0.002 0.017,0.004 0.018,0.021 v 13.803 c 0.004,0.016 -0.01,0.02 -0.02,0.022 h -13.805 c -0.01,0.003 -0.025,-0.011 -0.022,-0.02 l 0.001,-13.803 c -0.001,-0.017 0.005,-0.027 0.019,-0.022 z"
           style="fill:none;stroke:#000000;stroke-width:0.324878;stroke-linecap:butt;stroke-linejoin:miter;stroke-miterlimit:4;stroke-dasharray:none;stroke-opacity:1"
           id="path1554" /></g><g
         id="g1556"
         transform="matrix(1,-0.122784,-0.499772,-0.45,0,80.800003)"><path
           d="M 132.995,39.563 H 146.8 c 0.014,0.005 0.021,0.012 0.022,0.02 v 13.811 c 0,0.009 -0.01,0.02 -0.02,0.023 l -13.805,-0.001 c -0.014,-0.005 -0.022,-0.011 -0.026,-0.028 l 0.001,-13.802 c 0.003,-0.009 0.013,-0.021 0.023,-0.023 z"
           style="fill:none;stroke:#000000;stroke-width:0.324878;stroke-linecap:butt;stroke-linejoin:miter;stroke-miterlimit:4;stroke-dasharray:none;stroke-opacity:1"
           id="path1558" /></g><g
         id="g1560"
         transform="matrix(1,-0.122784,-0.499772,-0.45,0,80.800003)"><path
           d="m 132.997,25.395 13.801,-0.007 c 0.014,0.005 0.021,0.012 0.025,0.028 v 13.802 c -0.003,0.01 -0.013,0.021 -0.023,0.024 l -13.805,-10e-4 c -0.015,-0.004 -0.022,-0.011 -0.019,-0.021 l -0.003,-13.809 c 0,-0.009 0.009,-0.02 0.024,-0.016 z"
           style="fill:none;stroke:#000000;stroke-width:0.324878;stroke-linecap:butt;stroke-linejoin:miter;stroke-miterlimit:4;stroke-dasharray:none;stroke-opacity:1"
           id="path1562" /></g><g
         id="g1564"
         transform="matrix(1,-0.122784,-0.499772,-0.45,0,80.800003)"><path
           d="m 132.996,-2.955 13.805,10e-4 c 0.01,-0.003 0.021,0.011 0.022,0.02 l -0.004,13.803 c 0.004,0.016 -0.006,0.027 -0.02,0.023 l -13.805,-10e-4 c -0.011,0.003 -0.018,-0.004 -0.022,-0.02 l 0.004,-13.803 c -0.004,-0.016 0.009,-0.02 0.02,-0.023 z"
           style="fill:none;stroke:#000000;stroke-width:0.324878;stroke-linecap:butt;stroke-linejoin:miter;stroke-miterlimit:4;stroke-dasharray:none;stroke-opacity:1"
           id="path1566" /></g><g
         id="g1568"
         transform="matrix(1,-0.122784,-0.499772,-0.45,0,80.800003)"><path
           d="m 132.994,-17.13 13.805,10e-4 c 0.014,0.005 0.025,0.01 0.021,0.02 l 0.004,13.81 c -0.003,0.009 -0.01,0.02 -0.027,0.016 l -13.802,0.007 c -0.014,-0.005 -0.021,-0.012 -0.022,-0.029 l 10e-4,-13.802 c -10e-4,-0.009 0.009,-0.02 0.02,-0.023 z"
           style="fill:none;stroke:#000000;stroke-width:0.324878;stroke-linecap:butt;stroke-linejoin:miter;stroke-miterlimit:4;stroke-dasharray:none;stroke-opacity:1"
           id="path1570" /></g><g
         id="g1572"
         transform="matrix(1,-0.122784,-0.499772,-0.45,0,80.800003)"><path
           d="m 189.689,11.22 13.805,10e-4 c 0.011,-0.003 0.018,0.003 0.022,0.02 l -0.004,13.803 c 0.005,0.016 -0.009,0.02 -0.02,0.023 l -13.805,-0.001 c -0.01,0.003 -0.021,-0.011 -0.021,-0.02 l 0.004,-13.803 c -0.005,-0.016 0.005,-0.028 0.019,-0.023 z"
           style="fill:none;stroke:#000000;stroke-width:0.324878;stroke-linecap:butt;stroke-linejoin:miter;stroke-miterlimit:4;stroke-dasharray:none;stroke-opacity:1"
           id="path1574" /></g><g
         id="g1576"
         transform="matrix(1,-0.122784,-0.499772,-0.45,0,80.800003)"><path
           d="m 189.686,39.563 h 13.805 c 0.015,0.005 0.025,0.011 0.022,0.021 l 0.004,13.809 c -0.003,0.01 -0.01,0.02 -0.024,0.024 l -13.805,-0.001 c -0.014,-0.004 -0.021,-0.011 -0.022,-0.028 l 0.001,-13.802 c -0.001,-0.009 0.009,-0.02 0.019,-0.023 z"
           style="fill:none;stroke:#000000;stroke-width:0.324878;stroke-linecap:butt;stroke-linejoin:miter;stroke-miterlimit:4;stroke-dasharray:none;stroke-opacity:1"
           id="path1578" /></g><g
         id="g1580"
         transform="matrix(1,-0.122784,-0.499772,-0.45,0,80.800003)"><path
           d="m 189.688,25.396 13.805,-0.008 c 0.014,0.005 0.021,0.011 0.022,0.028 l -10e-4,13.803 c 10e-4,0.008 -0.009,0.02 -0.019,0.022 H 189.69 c -0.015,-0.005 -0.025,-0.011 -0.022,-0.02 l -0.004,-13.81 c 0.004,-0.01 0.01,-0.02 0.024,-0.015 z"
           style="fill:none;stroke:#000000;stroke-width:0.324878;stroke-linecap:butt;stroke-linejoin:miter;stroke-miterlimit:4;stroke-dasharray:none;stroke-opacity:1"
           id="path1582" /></g><g
         id="g1584"
         transform="matrix(1,-0.122784,-0.499772,-0.45,0,80.800003)"><path
           d="m 189.687,-2.955 13.805,10e-4 c 0.011,-0.003 0.025,0.01 0.022,0.02 v 13.802 c 0,0.017 -0.006,0.028 -0.02,0.023 h -13.809 c -0.01,0.003 -0.017,-0.004 -0.018,-0.021 V -2.932 c -0.004,-0.016 0.01,-0.02 0.02,-0.023 z"
           style="fill:none;stroke:#000000;stroke-width:0.324878;stroke-linecap:butt;stroke-linejoin:miter;stroke-miterlimit:4;stroke-dasharray:none;stroke-opacity:1"
           id="path1586" /></g><g
         id="g1588"
         transform="matrix(1,-0.122784,-0.499772,-0.45,0,80.800003)"><path
           d="m 189.689,-17.13 h 13.805 c 0.014,0.005 0.021,0.012 0.018,0.021 l 0.003,13.81 c 0.001,0.009 -0.009,0.02 -0.023,0.015 l -13.802,0.007 c -0.014,-0.005 -0.024,-0.01 -0.025,-0.028 v -13.802 c 0.003,-0.009 0.01,-0.02 0.024,-0.023 z"
           style="fill:none;stroke:#000000;stroke-width:0.324878;stroke-linecap:butt;stroke-linejoin:miter;stroke-miterlimit:4;stroke-dasharray:none;stroke-opacity:1"
           id="path1590" /></g><g
         id="g1592"
         transform="matrix(1,-0.122784,-0.499772,-0.45,0,80.800003)"><path
           d="m 175.512,11.217 13.809,-0.001 c 0.014,0.005 0.021,0.012 0.018,0.022 l 0.003,13.809 c 10e-4,0.009 -0.009,0.02 -0.02,0.023 h -13.805 c -0.014,-0.005 -0.024,-0.011 -0.025,-0.028 V 11.24 c 0.003,-0.01 0.01,-0.02 0.02,-0.023 z"
           style="fill:none;stroke:#000000;stroke-width:0.324878;stroke-linecap:butt;stroke-linejoin:miter;stroke-miterlimit:4;stroke-dasharray:none;stroke-opacity:1"
           id="path1594" /></g><g
         id="g1596"
         transform="matrix(1,-0.122784,-0.499772,-0.45,0,80.800003)"><path
           d="m 175.516,39.566 13.805,10e-4 c 0.011,-0.003 0.022,0.011 0.022,0.02 l -0.004,13.803 c 0.004,0.016 -0.009,0.02 -0.02,0.023 l -13.805,-10e-4 c -0.01,0.003 -0.021,-0.011 -0.021,-0.02 V 39.59 c -0.001,-0.017 0.009,-0.028 0.023,-0.024 z"
           style="fill:none;stroke:#000000;stroke-width:0.324878;stroke-linecap:butt;stroke-linejoin:miter;stroke-miterlimit:4;stroke-dasharray:none;stroke-opacity:1"
           id="path1598" /></g><g
         id="g1600"
         transform="matrix(1,-0.122784,-0.499772,-0.45,0,80.800003)"><path
           d="m 175.514,25.392 h 13.805 c 0.011,-0.003 0.025,0.011 0.022,0.02 v 13.803 c 0,0.017 -0.006,0.027 -0.024,0.023 h -13.805 c -0.01,0.002 -0.017,-0.004 -0.018,-0.021 V 25.414 c -0.004,-0.016 0.01,-0.02 0.02,-0.022 z"
           style="fill:none;stroke:#000000;stroke-width:0.324878;stroke-linecap:butt;stroke-linejoin:miter;stroke-miterlimit:4;stroke-dasharray:none;stroke-opacity:1"
           id="path1602" /></g><g
         id="g1604"
         transform="matrix(1,-0.122784,-0.499772,-0.45,0,80.800003)"><path
           d="m 175.513,-2.959 13.805,10e-4 c 0.015,0.005 0.022,0.011 0.026,0.027 l -0.004,13.804 c 0,0.008 -0.009,0.02 -0.02,0.022 h -13.805 c -0.014,-0.005 -0.021,-0.012 -0.022,-0.02 l 0.001,-13.811 c -0.001,-0.009 0.009,-0.02 0.019,-0.023 z"
           style="fill:none;stroke:#000000;stroke-width:0.324878;stroke-linecap:butt;stroke-linejoin:miter;stroke-miterlimit:4;stroke-dasharray:none;stroke-opacity:1"
           id="path1606" /></g><g
         id="g1608"
         transform="matrix(1,-0.122784,-0.499772,-0.45,0,80.800003)"><path
           d="m 175.515,-17.126 13.805,0.001 c 0.01,-0.003 0.021,0.003 0.022,0.02 l -0.001,13.802 c 0.001,0.017 -0.009,0.02 -0.019,0.023 h -13.809 c -0.01,0.003 -0.021,-0.012 -0.018,-0.021 v -13.802 c -0.004,-0.016 0.006,-0.028 0.02,-0.023 z"
           style="fill:none;stroke:#000000;stroke-width:0.324878;stroke-linecap:butt;stroke-linejoin:miter;stroke-miterlimit:4;stroke-dasharray:none;stroke-opacity:1"
           id="path1610" /></g><g
         id="g1612"
         transform="matrix(1,-0.122784,-0.499772,-0.45,0,80.800003)"><path
           d="m 147.168,11.216 13.805,0.001 c 0.014,0.005 0.021,0.011 0.022,0.02 v 13.811 c 0,0.008 -0.01,0.02 -0.02,0.023 L 147.17,25.07 c -0.014,-0.005 -0.022,-0.012 -0.026,-0.028 l 0.001,-13.802 c 0.003,-0.01 0.013,-0.021 0.023,-0.024 z"
           style="fill:none;stroke:#000000;stroke-width:0.324878;stroke-linecap:butt;stroke-linejoin:miter;stroke-miterlimit:4;stroke-dasharray:none;stroke-opacity:1"
           id="path1614" /></g><g
         id="g1616"
         transform="matrix(1,-0.122784,-0.499772,-0.45,0,80.800003)"><path
           d="m 147.169,39.567 h 13.805 c 0.01,-0.003 0.017,0.004 0.022,0.02 l -0.001,13.803 c 0.001,0.017 -0.013,0.021 -0.023,0.023 h -13.805 c -0.01,0.003 -0.022,-0.012 -0.018,-0.021 V 39.589 c -0.004,-0.016 0.006,-0.027 0.02,-0.022 z"
           style="fill:none;stroke:#000000;stroke-width:0.324878;stroke-linecap:butt;stroke-linejoin:miter;stroke-miterlimit:4;stroke-dasharray:none;stroke-opacity:1"
           id="path1618" /></g><g
         id="g1620"
         transform="matrix(1,-0.122784,-0.499772,-0.45,0,80.800003)"><path
           d="m 147.167,25.392 h 13.808 c 0.01,-0.003 0.022,0.011 0.019,0.021 l -0.001,13.802 c 0.004,0.016 -0.006,0.027 -0.02,0.023 l -13.805,-10e-4 c -0.01,0.003 -0.021,-0.003 -0.022,-0.02 l 0.001,-13.802 c -0.001,-0.017 0.009,-0.02 0.02,-0.023 z"
           style="fill:none;stroke:#000000;stroke-width:0.324878;stroke-linecap:butt;stroke-linejoin:miter;stroke-miterlimit:4;stroke-dasharray:none;stroke-opacity:1"
           id="path1622" /></g><g
         id="g1624"
         transform="matrix(1,-0.122784,-0.499772,-0.45,0,80.800003)"><path
           d="m 147.166,-2.959 13.805,10e-4 c 0.014,0.005 0.025,0.011 0.026,0.028 l -0.001,13.802 c -0.003,0.01 -0.01,0.02 -0.023,0.024 l -13.805,-0.001 c -0.014,-0.005 -0.022,-0.011 -0.019,-0.021 l -0.003,-13.81 c 0,-0.008 0.01,-0.02 0.02,-0.023 z"
           style="fill:none;stroke:#000000;stroke-width:0.324878;stroke-linecap:butt;stroke-linejoin:miter;stroke-miterlimit:4;stroke-dasharray:none;stroke-opacity:1"
           id="path1626" /></g><g
         id="g1628"
         transform="matrix(1,-0.122784,-0.499772,-0.45,0,80.800003)"><path
           d="m 147.168,-17.126 h 13.808 c 0.01,-0.003 0.018,0.004 0.018,0.021 v 13.802 c 0.004,0.016 -0.01,0.02 -0.02,0.023 l -13.805,-0.001 c -0.01,0.003 -0.025,-0.01 -0.022,-0.02 l 0.001,-13.802 c -0.001,-0.017 0.005,-0.028 0.02,-0.023 z"
           style="fill:none;stroke:#000000;stroke-width:0.324878;stroke-linecap:butt;stroke-linejoin:miter;stroke-miterlimit:4;stroke-dasharray:none;stroke-opacity:1"
           id="path1630" /></g><g
         id="g1632"
         transform="matrix(1,-0.122784,-0.499772,-0.45,0,80.800003)"><path
           d="m 161.342,11.22 13.805,10e-4 c 0.01,-0.003 0.021,0.003 0.022,0.02 l -0.001,13.802 c 0.001,0.017 -0.009,0.02 -0.023,0.024 L 161.34,25.066 c -0.01,0.003 -0.021,-0.011 -0.018,-0.021 V 11.243 c -0.004,-0.016 0.006,-0.027 0.02,-0.023 z"
           style="fill:none;stroke:#000000;stroke-width:0.324878;stroke-linecap:butt;stroke-linejoin:miter;stroke-miterlimit:4;stroke-dasharray:none;stroke-opacity:1"
           id="path1634" /></g><g
         id="g1636"
         transform="matrix(1,-0.122784,-0.499772,-0.45,0,80.800003)"><path
           d="m 161.339,39.563 h 13.808 c 0.015,0.005 0.022,0.011 0.019,0.021 l 0.003,13.81 c 0,0.008 -0.009,0.02 -0.02,0.023 l -13.805,-0.001 c -0.014,-0.005 -0.025,-0.011 -0.025,-0.028 V 39.586 c 0.003,-0.01 0.01,-0.02 0.02,-0.023 z"
           style="fill:none;stroke:#000000;stroke-width:0.324878;stroke-linecap:butt;stroke-linejoin:miter;stroke-miterlimit:4;stroke-dasharray:none;stroke-opacity:1"
           id="path1638" /></g><g
         id="g1640"
         transform="matrix(1,-0.122784,-0.499772,-0.45,0,80.800003)"><path
           d="m 161.344,25.395 13.801,-0.007 c 0.014,0.005 0.022,0.012 0.026,0.028 l -0.004,13.803 c 0,0.009 -0.01,0.02 -0.02,0.023 l -13.805,-10e-4 c -0.014,-0.005 -0.021,-0.011 -0.022,-0.02 l -0.003,-13.81 c 0.003,-0.009 0.013,-0.021 0.027,-0.016 z"
           style="fill:none;stroke:#000000;stroke-width:0.324878;stroke-linecap:butt;stroke-linejoin:miter;stroke-miterlimit:4;stroke-dasharray:none;stroke-opacity:1"
           id="path1642" /></g><g
         id="g1644"
         transform="matrix(1,-0.122784,-0.499772,-0.45,0,80.800003)"><path
           d="m 161.34,-2.954 13.808,-10e-4 c 0.011,-0.003 0.022,0.012 0.019,0.021 l -0.001,13.802 c 0.004,0.017 -0.006,0.028 -0.02,0.023 h -13.805 c -0.01,0.002 -0.021,-0.003 -0.021,-0.02 V -2.932 c -0.001,-0.017 0.01,-0.02 0.02,-0.022 z"
           style="fill:none;stroke:#000000;stroke-width:0.324878;stroke-linecap:butt;stroke-linejoin:miter;stroke-miterlimit:4;stroke-dasharray:none;stroke-opacity:1"
           id="path1646" /></g><g
         id="g1648"
         transform="matrix(1,-0.122784,-0.499772,-0.45,0,80.800003)"><path
           d="m 161.341,-17.13 h 13.805 c 0.014,0.005 0.022,0.012 0.022,0.021 v 13.81 c 0,0.009 -0.01,0.02 -0.024,0.016 l -13.801,0.007 c -0.014,-0.005 -0.021,-0.012 -0.026,-0.028 l 0.004,-13.803 c 0,-0.009 0.01,-0.02 0.02,-0.023 z"
           style="fill:none;stroke:#000000;stroke-width:0.324878;stroke-linecap:butt;stroke-linejoin:miter;stroke-miterlimit:4;stroke-dasharray:none;stroke-opacity:1"
           id="path1650" /></g></g></g></svg>
